<?xml version="1.0" encoding="UTF-8"?>
<svg width="20px" height="20px" viewBox="0 0 20 20" version="1.1" xmlns="http://www.w3.org/2000/svg" xmlns:xlink="http://www.w3.org/1999/xlink">
    <!-- Generator: Sketch 52.6 (67491) - http://www.bohemiancoding.com/sketch -->
    <title>scroll</title>
    <desc>Created with Sketch.</desc>
    <defs>
        <rect id="path-1" x="0" y="0" width="20" height="20"></rect>
    </defs>
    <g id="scroll" stroke="none" stroke-width="1" fill="none" fill-rule="evenodd">
        <g id="Group-4-Copy">
            <g>
                <mask id="mask-2" fill="white">
                    <use xlink:href="#path-1"></use>
                </mask>
                <g id="Mask"></g>
                <g id="Group-4" mask="url(#mask-2)" fill="white" fill-rule="nonzero">
                    <g transform="translate(5.000000, -8.000000)">
                        <path d="M1.66666667,13.9242424 C1.20642938,13.9242424 0.833333333,14.2973385 0.833333333,14.7575758 L0.833333333,21.2424242 C0.833333333,21.7026615 1.20642938,22.0757576 1.66666667,22.0757576 L8.51851852,22.0757576 C8.97875581,22.0757576 9.35185185,21.7026615 9.35185185,21.2424242 L9.35185185,14.7575758 C9.35185185,14.2973385 8.97875581,13.9242424 8.51851852,13.9242424 L1.66666667,13.9242424 Z M1.66666667,12.2575758 L8.51851852,12.2575758 C9.89923039,12.2575758 11.0185185,13.3768639 11.0185185,14.7575758 L11.0185185,21.2424242 C11.0185185,22.6231361 9.89923039,23.7424242 8.51851852,23.7424242 L1.66666667,23.7424242 C0.285954792,23.7424242 -0.833333333,22.6231361 -0.833333333,21.2424242 L-0.833333333,14.7575758 C-0.833333333,13.3768639 0.285954792,12.2575758 1.66666667,12.2575758 Z" id="Rectangle-9"></path>
                        <path d="M1.66666667,0.833333333 C1.20642938,0.833333333 0.833333333,1.20642938 0.833333333,1.66666667 L0.833333333,8.15151515 C0.833333333,8.61175244 1.20642938,8.98484848 1.66666667,8.98484848 L8.51851852,8.98484848 C8.97875581,8.98484848 9.35185185,8.61175244 9.35185185,8.15151515 L9.35185185,1.66666667 C9.35185185,1.20642938 8.97875581,0.833333333 8.51851852,0.833333333 L1.66666667,0.833333333 Z M1.66666667,-0.833333333 L8.51851852,-0.833333333 C9.89923039,-0.833333333 11.0185185,0.285954792 11.0185185,1.66666667 L11.0185185,8.15151515 C11.0185185,9.53222703 9.89923039,10.6515152 8.51851852,10.6515152 L1.66666667,10.6515152 C0.285954792,10.6515152 -0.833333333,9.53222703 -0.833333333,8.15151515 L-0.833333333,1.66666667 C-0.833333333,0.285954792 0.285954792,-0.833333333 1.66666667,-0.833333333 Z" id="Rectangle-9-Copy"></path>
                        <path d="M1.66666667,27.0151515 C1.20642938,27.0151515 0.833333333,27.3882476 0.833333333,27.8484848 L0.833333333,34.3333333 C0.833333333,34.7935706 1.20642938,35.1666667 1.66666667,35.1666667 L8.51851852,35.1666667 C8.97875581,35.1666667 9.35185185,34.7935706 9.35185185,34.3333333 L9.35185185,27.8484848 C9.35185185,27.3882476 8.97875581,27.0151515 8.51851852,27.0151515 L1.66666667,27.0151515 Z M1.66666667,25.3484848 L8.51851852,25.3484848 C9.89923039,25.3484848 11.0185185,26.467773 11.0185185,27.8484848 L11.0185185,34.3333333 C11.0185185,35.7140452 9.89923039,36.8333333 8.51851852,36.8333333 L1.66666667,36.8333333 C0.285954792,36.8333333 -0.833333333,35.7140452 -0.833333333,34.3333333 L-0.833333333,27.8484848 C-0.833333333,26.467773 0.285954792,25.3484848 1.66666667,25.3484848 Z" id="Rectangle-9-Copy-2"></path>
                    </g>
                </g>
            </g>
        </g>
    </g>
</svg>