<?xml version="1.0" encoding="UTF-8"?>
<svg width="17px" height="17px" viewBox="0 0 17 17" version="1.1" xmlns="http://www.w3.org/2000/svg" xmlns:xlink="http://www.w3.org/1999/xlink">
    <!-- Generator: Sketch 52.6 (67491) - http://www.bohemiancoding.com/sketch -->
    <title>x_white</title>
    <desc>Created with Sketch.</desc>
    <g id="x_white" stroke="none" stroke-width="1" fill="none" fill-rule="evenodd">
        <g id="x" fill-rule="nonzero">
            <g id="Group-19">
                <rect id="Rectangle" x="0" y="0" width="17" height="17"></rect>
                <path d="M11.6813979,4.96446609 L8.49941738,8.14644661 L5.31743687,4.96446609 C5.21980579,4.86683502 5.06151455,4.86683502 4.96388348,4.96446609 C4.8662524,5.06209717 4.8662524,5.22038841 4.96388348,5.31801948 L8.14586399,8.5 L4.96388348,11.6819805 C4.8662524,11.7796116 4.8662524,11.9379028 4.96388348,12.0355339 C5.06151455,12.133165 5.21980579,12.133165 5.31743687,12.0355339 L8.49941738,8.85355339 L11.6813979,12.0355339 C11.779029,12.133165 11.9373202,12.133165 12.0349513,12.0355339 C12.1325824,11.9379028 12.1325824,11.7796116 12.0349513,11.6819805 L8.85297077,8.5 L12.0349513,5.31801948 C12.1325824,5.22038841 12.1325824,5.06209717 12.0349513,4.96446609 C11.9373202,4.86683502 11.779029,4.86683502 11.6813979,4.96446609 Z" id="Path" stroke="#FFFFFF"></path>
            </g>
        </g>
    </g>
</svg>