<?xml version="1.0" encoding="UTF-8"?>
<svg width="20px" height="20px" viewBox="0 0 20 20" version="1.1" xmlns="http://www.w3.org/2000/svg" xmlns:xlink="http://www.w3.org/1999/xlink">
    <!-- Generator: Sketch 52.6 (67491) - http://www.bohemiancoding.com/sketch -->
    <title>clock</title>
    <desc>Created with Sketch.</desc>
    <g id="clock" stroke="none" stroke-width="1" fill="none" fill-rule="evenodd">
        <g fill="white" fill-rule="nonzero">
            <path d="M10,17.5 C14.1421356,17.5 17.5,14.1421356 17.5,10 C17.5,5.85786438 14.1421356,2.5 10,2.5 C5.85786438,2.5 2.5,5.85786438 2.5,10 C2.5,14.1421356 5.85786438,17.5 10,17.5 Z M10,19.1666667 C4.93738979,19.1666667 0.833333333,15.0626102 0.833333333,10 C0.833333333,4.93738979 4.93738979,0.833333333 10,0.833333333 C15.0626102,0.833333333 19.1666667,4.93738979 19.1666667,10 C19.1666667,15.0626102 15.0626102,19.1666667 10,19.1666667 Z" id="Oval"></path>
            <path d="M10.8333333,9.69330501 L13.4956028,11.0244397 C13.9072515,11.2302641 14.0741052,11.730825 13.8682808,12.1424737 C13.6624564,12.5541225 13.1618956,12.7209761 12.7502468,12.5151517 L9.627322,10.9536893 C9.34500198,10.8125293 9.16666667,10.5239767 9.16666667,10.2083333 L9.16666667,4.58333333 C9.16666667,4.12309604 9.53976271,3.75 10,3.75 C10.4602373,3.75 10.8333333,4.12309604 10.8333333,4.58333333 L10.8333333,9.69330501 Z" id="Shape"></path>
        </g>
    </g>
</svg>