<?xml version="1.0" encoding="UTF-8"?>
<svg width="20px" height="20px" viewBox="0 0 20 20" version="1.1" xmlns="http://www.w3.org/2000/svg" xmlns:xlink="http://www.w3.org/1999/xlink">
    <!-- Generator: Sketch 52.6 (67491) - http://www.bohemiancoding.com/sketch -->
    <title>info</title>
    <desc>Created with Sketch.</desc>
    <g id="info" stroke="none" stroke-width="1" fill="none" fill-rule="evenodd">
        <g fill="#000000">
            <path d="M10,17.5 C14.1421356,17.5 17.5,14.1421356 17.5,10 C17.5,5.85786438 14.1421356,2.5 10,2.5 C5.85786438,2.5 2.5,5.85786438 2.5,10 C2.5,14.1421356 5.85786438,17.5 10,17.5 Z M10,19.1666667 C4.93738979,19.1666667 0.833333333,15.0626102 0.833333333,10 C0.833333333,4.93738979 4.93738979,0.833333333 10,0.833333333 C15.0626102,0.833333333 19.1666667,4.93738979 19.1666667,10 C19.1666667,15.0626102 15.0626102,19.1666667 10,19.1666667 Z" id="Oval" fill-rule="nonzero"></path>
            <path d="M10.8333333,14 C10.8333333,14.4602373 10.4602373,14.8333333 10,14.8333333 C9.53976271,14.8333333 9.16666667,14.4602373 9.16666667,14 L9.16666667,9.16666667 C9.16666667,8.70642938 9.53976271,8.33333333 10,8.33333333 C10.4602373,8.33333333 10.8333333,8.70642938 10.8333333,9.16666667 L10.8333333,14 Z" id="Shape" fill-rule="nonzero"></path>
            <circle id="Oval-5" cx="10" cy="6.25" r="1"></circle>
        </g>
    </g>
</svg>