<?xml version="1.0" encoding="UTF-8"?>
<svg width="20px" height="20px" viewBox="0 0 20 20" version="1.1" xmlns="http://www.w3.org/2000/svg" xmlns:xlink="http://www.w3.org/1999/xlink">
    <!-- Generator: Sketch 52.6 (67491) - http://www.bohemiancoding.com/sketch -->
    <title>mouse</title>
    <desc>Created with Sketch.</desc>
    <defs>
        <rect id="path-1" x="0" y="0" width="20" height="20"></rect>
    </defs>
    <g id="mouse" stroke="none" stroke-width="1" fill="none" fill-rule="evenodd">
        <g>
            <path d="M11.3540683,13.0534535 L11.3540683,18.3333333 C11.3540683,18.724535 11.0369367,19.0416667 10.645735,19.0416667 L7.84728908,19.0416667 C7.45608738,19.0416667 7.13895575,18.724535 7.13895575,18.3333333 L7.13895575,13.0534535 L4.50638073,14.0916693 C3.92130528,14.3224071 3.3481153,13.733015 3.59506791,13.1545968 L8.61852574,1.38853602 C8.86387271,0.813878599 9.67894497,0.815255036 9.92234965,1.39073782 L14.8988918,13.1567986 C15.1434413,13.734988 14.5706486,14.321985 13.9866433,14.0916693 L11.3540683,13.0534535 Z M9.93740166,12.0126792 C9.93740166,11.5130282 10.4407929,11.1704287 10.9056037,11.3537373 L12.9369335,12.1548384 L9.26691137,3.47778872 L5.56354588,12.1518982 L7.58742039,11.3537373 C8.05223115,11.1704287 8.55562241,11.5130282 8.55562241,12.0126792 L8.55562241,17.625 L9.93740166,17.625 L9.93740166,12.0126792 Z" id="Path-2-Copy" fill="white" fill-rule="nonzero" transform="translate(9.246499, 10.000000) rotate(-29.000000) translate(-9.246499, -10.000000) "></path>
            <mask id="mask-2" fill="white">
                <use xlink:href="#path-1"></use>
            </mask>
            <g id="Mask"></g>
        </g>
    </g>
</svg>